<svg width="40" height="40" viewBox="0 0 40 40" fill="none" xmlns="http://www.w3.org/2000/svg">
<g clip-path="url(#clip0_80_1214)">
<circle cx="29.2877" cy="29.3451" r="10.8917" fill="#70E9C9"/>
<path d="M3.59039 16.8H35.36M25.3504 4.0512L25.12 4L3.99999 16.4416C3.81616 16.5386 3.6606 16.6815 3.54844 16.8565C3.43628 17.0314 3.37135 17.2325 3.35999 17.44V34.6176C3.35999 34.9571 3.49484 35.2827 3.73489 35.5227C3.97494 35.7627 4.30051 35.8976 4.63999 35.8976H35.36C35.6995 35.8976 36.025 35.7627 36.2651 35.5227C36.5051 35.2827 36.64 34.9571 36.64 34.6176V16.6976C36.2461 13.6996 34.9584 10.8897 32.9447 8.63403C30.931 6.37833 28.2847 4.78137 25.3504 4.0512Z" stroke="#222222" stroke-width="2" stroke-linecap="round" stroke-linejoin="round"/>
<path d="M3.35999 28.7552L3.56479 28.576C4.03897 28.0922 4.60445 27.7073 5.22845 27.4437C5.85245 27.18 6.52257 27.0428 7.19999 27.04C8.55789 27.04 9.86019 27.5794 10.8204 28.5396C11.7806 29.4998 12.32 30.8021 12.32 32.16C12.3143 33.5157 11.7711 34.8138 10.8096 35.7696L10.6048 36" stroke="#222222" stroke-width="2" stroke-linecap="round" stroke-linejoin="round"/>
<path d="M25.1196 29.6C27.2404 29.6 28.9596 27.8808 28.9596 25.76C28.9596 23.6392 27.2404 21.92 25.1196 21.92C22.9989 21.92 21.2796 23.6392 21.2796 25.76C21.2796 27.8808 22.9989 29.6 25.1196 29.6Z" stroke="#222222" stroke-width="2" stroke-linecap="round" stroke-linejoin="round"/>
</g>
<defs>
<clipPath id="clip0_80_1214">
<rect width="40" height="40" fill="white"/>
</clipPath>
</defs>
</svg>
