<svg width="40" height="40" viewBox="0 0 40 40" fill="none" xmlns="http://www.w3.org/2000/svg">
<circle cx="28.89" cy="28.89" r="10.89" fill="#70E9C9"/>
<path d="M34.4219 20.9018C34.1828 21.1409 33.8584 21.2753 33.5202 21.2753C33.1819 21.2753 32.8576 21.1409 32.6184 20.9018C32.3792 20.6626 32.2449 20.3382 32.2449 20C32.2449 19.6618 32.3792 19.3374 32.6184 19.0982C32.8576 18.8591 33.1819 18.7247 33.5202 18.7247C33.8584 18.7247 34.1828 18.8591 34.4219 19.0982C34.6611 19.3374 34.7955 19.6618 34.7955 20C34.7955 20.3382 34.6611 20.6626 34.4219 20.9018Z" fill="#222222"/>
<path d="M12.7396 8.14884C12.5005 8.38801 12.1761 8.52237 11.8379 8.52237C11.4996 8.52237 11.1752 8.38801 10.9361 8.14884C10.6969 7.90968 10.5626 7.5853 10.5626 7.24707C10.5626 6.90885 10.6969 6.58447 10.9361 6.34531C11.1752 6.10614 11.4996 5.97178 11.8379 5.97178C12.1761 5.97178 12.5005 6.10614 12.7396 6.34531C12.9788 6.58447 13.1131 6.90885 13.1131 7.24707C13.1131 7.5853 12.9788 7.90968 12.7396 8.14884Z" fill="#222222"/>
<path d="M12.7396 33.6547C12.5005 33.8939 12.1761 34.0282 11.8379 34.0282C11.4996 34.0282 11.1752 33.8939 10.9361 33.6547C10.6969 33.4155 10.5626 33.0912 10.5626 32.7529C10.5626 32.4147 10.6969 32.0903 10.9361 31.8512C11.1752 31.612 11.4996 31.4776 11.8379 31.4776C12.1761 31.4776 12.5005 31.612 12.7396 31.8512C12.9788 32.0903 13.1131 32.4147 13.1131 32.7529C13.1131 33.0912 12.9788 33.4155 12.7396 33.6547Z" fill="#222222"/>
<path d="M26.8028 8.23435C22.3258 4.74198 15.6506 8.58063 15.406 13.1598C12.0846 11.4818 5.20453 13.5904 5.20453 19.97C5.20453 27.3298 12.4838 28.0202 15.423 26.7792C15.423 30.4205 21.0773 35.5657 27.1142 31.5868C32.2904 27.464 29.4289 21.7256 27.3477 20.0115C29.4585 18.3329 32.4625 12.6494 26.8028 8.23435Z" stroke="#222222" stroke-width="2" stroke-linejoin="round"/>
</svg>
