<svg width="40" height="40" viewBox="0 0 40 40" fill="none" xmlns="http://www.w3.org/2000/svg">
<circle cx="29.1083" cy="29.1083" r="10.8917" fill="#70E9C9"/>
<path d="M30.3606 10.303C31.03 10.303 31.5727 9.76034 31.5727 9.09091C31.5727 8.42147 31.03 7.87878 30.3606 7.87878C29.6911 7.87878 29.1484 8.42147 29.1484 9.09091C29.1484 9.76034 29.6911 10.303 30.3606 10.303Z" fill="#222222"/>
<path d="M4 25.8182V24.8182C3.59554 24.8182 3.2309 25.0618 3.07612 25.4355C2.92134 25.8092 3.0069 26.2393 3.29289 26.5253L4 25.8182ZM14.1818 36L13.4747 36.7071C13.7607 36.9931 14.1908 37.0787 14.5645 36.9239C14.9382 36.7691 15.1818 36.4045 15.1818 36H14.1818ZM15.7568 14.4953L14.8524 14.0687L15.7568 14.4953ZM26.7879 4.9697L26.5221 4.00566L26.7879 4.9697ZM36 4L36.9999 4.01315L37.0132 3H36V4ZM35.6996 11.2727L34.7158 11.0933L35.6996 11.2727ZM22.4432 25.4127L22.2774 24.4265L22.4432 25.4127ZM3.29289 26.5253L13.4747 36.7071L14.8889 35.2929L4.70711 25.1111L3.29289 26.5253ZM15.1818 36V25.8182H13.1818V36H15.1818ZM15.1773 25.7234C15.0239 24.1121 15.071 22.0832 15.326 20.1011C15.5823 18.1088 16.0387 16.2418 16.6612 14.9219L14.8524 14.0687C14.1045 15.6541 13.6118 17.7515 13.3424 19.8459C13.0717 21.9504 13.0165 24.1303 13.1863 25.913L15.1773 25.7234ZM27.0536 5.93373C30.2016 5.06592 33.7392 5 36 5V3C33.7356 3 29.956 3.05901 26.5221 4.00566L27.0536 5.93373ZM35.0001 3.98685C34.9867 5.0056 34.987 6.38594 34.9529 7.74246C34.9184 9.11314 34.8501 10.3574 34.7158 11.0933L36.6833 11.4522C36.8495 10.5413 36.9182 9.14755 36.9523 7.79274C36.9867 6.42376 36.9871 4.99111 36.9999 4.01315L35.0001 3.98685ZM30.5145 19.648C27.6358 22.3315 24.9405 23.9787 22.2774 24.4265L22.609 26.3988C25.8345 25.8565 28.8793 23.9065 31.8782 21.1109L30.5145 19.648ZM22.2774 24.4265C19.9664 24.8151 16.3157 24.8182 14.1818 24.8182V26.8182C16.255 26.8182 20.0966 26.8213 22.609 26.3988L22.2774 24.4265ZM4 26.8182H14.1818V24.8182H4V26.8182ZM16.6612 14.9219C17.7702 12.5709 19.9856 10.3416 20.6806 9.74852L19.3823 8.22717C18.5809 8.91112 16.1313 11.3573 14.8524 14.0687L16.6612 14.9219ZM20.7427 9.69077C23.5696 6.83041 26.1425 6.18491 27.0536 5.93373L26.5221 4.00566C25.4839 4.29188 22.5111 5.05617 19.3202 8.28492L20.7427 9.69077ZM34.7158 11.0933C34.2598 13.5926 32.7305 17.2332 30.4602 19.7027L31.9325 21.0563C34.4961 18.2678 36.1703 14.2644 36.6833 11.4522L34.7158 11.0933ZM30.4602 19.7027C30.4497 19.714 30.4398 19.725 30.4306 19.7352C30.4222 19.7446 30.4108 19.7575 30.3989 19.7715C30.3931 19.7784 30.3834 19.79 30.3722 19.8042C30.3665 19.8115 30.3582 19.8222 30.3486 19.8355C30.3437 19.8422 30.3376 19.8508 30.3308 19.8609C30.3241 19.8707 30.3152 19.8841 30.3053 19.9003C30.2958 19.9158 30.2817 19.9396 30.2663 19.9698C30.2584 19.9852 30.2488 20.005 30.2387 20.0284C30.2289 20.0513 30.2165 20.0823 30.2045 20.12C30.1928 20.1564 30.1779 20.21 30.168 20.2762C30.1642 20.3042 30.1587 20.365 30.1573 20.3977C30.157 20.436 30.1614 20.5187 30.1666 20.5629C30.1841 20.6882 30.2325 20.8577 30.3553 21.0224C30.4035 21.0821 30.5127 21.1895 30.5731 21.2365C30.6344 21.2773 30.7594 21.3422 30.8221 21.3669C30.8794 21.3854 30.9891 21.4105 31.041 21.4179C31.0861 21.4222 31.1701 21.4246 31.2088 21.4234C31.242 21.4211 31.3035 21.4139 31.3316 21.4094C31.356 21.4047 31.401 21.3945 31.4217 21.3891C31.4713 21.3755 31.5117 21.3602 31.5402 21.3484C31.5695 21.3363 31.594 21.3245 31.6125 21.315C31.6486 21.2966 31.6767 21.2794 31.694 21.2684C31.7124 21.2567 31.7274 21.2463 31.7382 21.2387C31.7591 21.2238 31.7753 21.211 31.7847 21.2035C31.7949 21.1953 31.8034 21.1882 31.8094 21.1831C31.8211 21.1731 31.8307 21.1645 31.8367 21.1591C31.8487 21.1481 31.8592 21.1381 31.8661 21.1314C31.8807 21.1174 31.8954 21.1028 31.9079 21.0903C31.9204 21.0776 31.9347 21.0629 31.9485 21.0484C31.9552 21.0413 31.9644 21.0314 31.9745 21.0202C31.9795 21.0146 31.9868 21.0064 31.9952 20.9966C31.9995 20.9915 32.0051 20.9849 32.0115 20.9771C32.0175 20.9696 32.0265 20.9584 32.0369 20.9445C32.0422 20.9373 32.0489 20.9282 32.0564 20.9175C32.0637 20.9071 32.0735 20.8927 32.0845 20.8752C32.0949 20.8586 32.1106 20.8324 32.1276 20.7992C32.1363 20.7821 32.147 20.7601 32.1581 20.7339C32.1689 20.7083 32.1826 20.673 32.1954 20.6302C32.2006 20.6124 32.2104 20.5741 32.2151 20.5535C32.2199 20.5299 32.2282 20.4785 32.2316 20.4507C32.2346 20.4186 32.2374 20.349 32.2369 20.3114C32.2345 20.2681 32.2231 20.1751 32.2134 20.1257C32.1993 20.0701 32.1589 19.9552 32.1319 19.8965C32.0984 19.8348 32.0163 19.7163 31.9677 19.6603C31.9148 19.6079 31.8002 19.5168 31.7392 19.4784C31.6804 19.4469 31.5635 19.3981 31.5061 19.3802C31.4549 19.3674 31.3577 19.3507 31.312 19.3462C31.2726 19.344 31.199 19.3441 31.1649 19.346C31.1357 19.3485 31.0813 19.3556 31.0562 19.3599C31.0345 19.3641 30.9941 19.3734 30.9753 19.3783C30.9301 19.3905 30.893 19.404 30.8662 19.4147C30.8388 19.4257 30.8158 19.4363 30.798 19.445C30.7634 19.4619 30.7362 19.4776 30.7191 19.488C30.701 19.4989 30.6861 19.5087 30.6753 19.516C30.6544 19.5302 30.638 19.5424 30.6283 19.5498C30.609 19.5645 30.5939 19.5772 30.5863 19.5836C30.5701 19.5972 30.5558 19.61 30.5467 19.6183C30.5363 19.6277 30.5255 19.6377 30.5145 19.648L31.8782 21.1109C31.8848 21.1048 31.8883 21.1016 31.8894 21.1006C31.8918 21.0985 31.8861 21.1037 31.876 21.1122C31.8715 21.116 31.8588 21.1266 31.8414 21.1399C31.8327 21.1466 31.8171 21.1582 31.7968 21.172C31.7864 21.179 31.7718 21.1886 31.754 21.1994C31.7371 21.2096 31.7102 21.2252 31.6758 21.242C31.6581 21.2507 31.6351 21.2612 31.6078 21.2722C31.5811 21.2828 31.5441 21.2963 31.499 21.3085C31.4803 21.3134 31.4398 21.3226 31.4182 21.3269C31.3931 21.3312 31.3387 21.3382 31.3095 21.3408C31.2755 21.3426 31.2019 21.3428 31.1625 21.3406C31.1168 21.3361 31.0197 21.3194 30.9685 21.3066C30.9111 21.2887 30.7942 21.2399 30.7355 21.2084C30.6745 21.17 30.5599 21.0789 30.507 21.0265C30.4585 20.9706 30.3764 20.852 30.3428 20.7904C30.3158 20.7317 30.2755 20.6168 30.2614 20.5612C30.2517 20.5119 30.2402 20.4189 30.2379 20.3756C30.2374 20.3381 30.2402 20.2684 30.2431 20.2363C30.2465 20.2086 30.2549 20.1573 30.2597 20.1336C30.2643 20.113 30.2742 20.0748 30.2793 20.0571C30.2921 20.0143 30.3057 19.9791 30.3166 19.9536C30.3276 19.9275 30.3382 19.9055 30.3469 19.8886C30.3638 19.8555 30.3794 19.8296 30.3897 19.8132C30.4005 19.796 30.4101 19.7818 30.4172 19.7717C30.4245 19.7613 30.4309 19.7525 30.436 19.7457C30.4459 19.7325 30.4542 19.722 30.4596 19.7155C30.4652 19.7085 30.47 19.7029 30.4734 19.6989C30.48 19.6912 30.4851 19.6854 30.4877 19.6825C30.4905 19.6794 30.4926 19.6771 30.4936 19.676C30.4947 19.6748 30.4954 19.6741 30.4955 19.674C30.4956 19.6739 30.4949 19.6747 30.4931 19.6765C30.4914 19.6782 30.4895 19.6802 30.4873 19.6824C30.4823 19.6874 30.4796 19.6901 30.4799 19.6898C30.4802 19.6895 30.4812 19.6886 30.4827 19.6871C30.4841 19.6858 30.4869 19.6832 30.4908 19.6796C30.4942 19.6765 30.5015 19.6699 30.5114 19.6615C30.5164 19.6572 30.524 19.6508 30.5335 19.6433C30.5421 19.6363 30.5577 19.6241 30.578 19.6096C30.5884 19.6022 30.6032 19.5919 30.6214 19.5804C30.6384 19.5696 30.6664 19.5525 30.7023 19.5342C30.7207 19.5247 30.7451 19.513 30.7743 19.5009C30.8027 19.4891 30.8431 19.4739 30.8926 19.4603C30.9133 19.4549 30.9583 19.4447 30.9826 19.44C31.0107 19.4355 31.0722 19.4283 31.1054 19.426C31.1441 19.4248 31.228 19.4272 31.2731 19.4315C31.3249 19.4389 31.4346 19.464 31.492 19.4825C31.5546 19.5071 31.6796 19.5721 31.7408 19.6128C31.8013 19.6599 31.9105 19.7672 31.9586 19.8269C32.0815 19.9916 32.1298 20.161 32.1473 20.2863C32.1525 20.3305 32.1569 20.4132 32.1566 20.4515C32.1552 20.4842 32.1497 20.5449 32.1459 20.5728C32.136 20.639 32.1211 20.6926 32.1095 20.7289C32.0975 20.7665 32.0851 20.7975 32.0753 20.8203C32.0653 20.8435 32.0557 20.8632 32.0479 20.8786C32.0326 20.9085 32.0187 20.9321 32.0094 20.9473C31.9996 20.9632 31.9909 20.9763 31.9844 20.9858C31.9778 20.9955 31.972 21.0037 31.9674 21.0101C31.9584 21.0225 31.9508 21.0323 31.946 21.0384C31.9366 21.0504 31.9292 21.0592 31.9263 21.0626C31.9203 21.0698 31.9171 21.0732 31.9199 21.0702C31.9218 21.068 31.9258 21.0636 31.9325 21.0563L30.4602 19.7027ZM19.3173 9.68781L30.4822 21.0794L31.9105 19.6795L20.7457 8.28788L19.3173 9.68781Z" fill="#222222"/>
</svg>
