<svg width="40" height="40" viewBox="0 0 40 40" fill="none" xmlns="http://www.w3.org/2000/svg">
<circle cx="10.8917" cy="10.8917" r="10.8917" fill="#70E9C9"/>
<path d="M15.3199 38C18.5232 38 21.1199 35.4033 21.1199 32.2C21.1199 28.9968 18.5232 26.4 15.3199 26.4C12.1166 26.4 9.5199 28.9968 9.5199 32.2C9.5199 35.4033 12.1166 38 15.3199 38Z" stroke="#222222" stroke-width="2" stroke-linecap="round" stroke-linejoin="round"/>
<path d="M31.5599 35.68C34.7632 35.68 37.3599 33.0833 37.3599 29.88C37.3599 26.6768 34.7632 24.08 31.5599 24.08C28.3567 24.08 25.7599 26.6768 25.7599 29.88C25.7599 33.0833 28.3567 35.68 31.5599 35.68Z" stroke="#222222" stroke-width="2" stroke-linecap="round" stroke-linejoin="round"/>
<path d="M28.8163 24.7715C24.3101 20.7156 21.5782 15.0514 21.2094 9C17.5505 14.0747 15.5271 20.1449 15.4094 26.4M15.3202 9H26.9202" stroke="#222222" stroke-width="2" stroke-linecap="round" stroke-linejoin="round"/>
</svg>
