<svg width="40" height="40" viewBox="0 0 40 40" fill="none" xmlns="http://www.w3.org/2000/svg">
<circle cx="29.1083" cy="29.1083" r="10.8917" fill="#70E9C9"/>
<path d="M19.7897 36C10.7064 36 7.47853 28.6648 7 24.8148V19.3365M19.7897 36C28.8729 36 32.1149 28.6648 32.6005 24.8148V19.3365M19.7897 36C19.7897 34.2834 19.7897 32.1977 19.7897 29.7317M19.7897 21.0766C20.4261 19.2097 21.8822 15.1401 25.1962 12.8338C25.7335 12.4599 26.4072 12.0642 26.9563 11.7793M19.7897 21.0766C19.1364 19.1681 18.3673 16.5676 16.3146 14.4563C15.6971 13.8212 14.4833 12.6102 12.7503 11.7641M19.7897 21.0766C19.7897 22.2512 19.7897 25.8272 19.7897 29.7317M12.7503 11.7641C11.0173 10.918 8.18635 10.3079 7 10.4353V19.3365M12.7503 11.7641C13.1052 11.0088 14.0561 8.91666 15.6689 7.21587C17.2817 5.51509 19.0504 4.32989 19.7897 4C20.871 4.54982 22.6177 5.91077 23.8674 7.12012C25.2421 8.45052 26.5176 10.7186 26.9563 11.7793M26.9563 11.7793C29.1607 10.6355 31.3689 10.3888 32.6005 10.4638V19.3365M7 19.3365C9.27442 19.3365 11.9462 20.0441 14.3945 21.7318C17.2767 23.7185 18.8351 26.8276 19.7897 29.7317M19.7897 29.7317C20.7278 26.8518 22.1353 24.1098 25.0471 21.9259C27.2259 20.2918 30.1915 19.3365 32.6005 19.3365" stroke="#222222" stroke-width="2" stroke-linejoin="round"/>
</svg>
