<svg width="40" height="40" viewBox="0 0 40 40" fill="none" xmlns="http://www.w3.org/2000/svg">
<circle cx="28.89" cy="28.89" r="10.89" fill="#70E9C9"/>
<path d="M23.1365 12.9438L26.5626 9.51596C26.1573 9.11074 25.8581 8.61182 25.6917 8.06337C25.5252 7.51493 25.4966 6.9339 25.6083 6.37174C25.72 5.80958 25.9686 5.28364 26.3321 4.84052C26.6956 4.39739 27.1628 4.05076 27.6923 3.8313C28.2218 3.61185 28.7972 3.52636 29.3676 3.58241C29.938 3.63845 30.4858 3.8343 30.9624 4.15261C31.4391 4.47091 31.8298 4.90185 32.1002 5.40725C32.3705 5.91265 32.512 6.47692 32.5122 7.05007C33.0855 7.04966 33.65 7.19067 34.1558 7.46062C34.6615 7.73056 35.0929 8.1211 35.4116 8.59762C35.7304 9.07414 35.9267 9.62193 35.9831 10.1925C36.0395 10.763 35.9543 11.3386 35.7351 11.8683C35.5158 12.398 35.1693 12.8655 34.7262 13.2293C34.2831 13.593 33.7571 13.8419 33.1948 13.9538C32.6325 14.0657 32.0514 14.0371 31.5027 13.8707C30.9541 13.7042 30.4551 13.405 30.0497 12.9996L26.8781 16.173M12.4713 26.2195L14.214 27.9622M9.69001 30.7435C14.4528 35.508 19.9718 37.7143 22.0108 35.6736C24.0532 33.6312 21.847 28.1138 17.0825 23.3511C12.3197 18.5866 6.80065 16.3804 4.76172 18.4211C2.7193 20.4635 4.92553 25.9808 9.69001 30.7435Z" stroke="#222222" stroke-width="2" stroke-linecap="round" stroke-linejoin="round"/>
<path d="M22.0125 35.6736C28.8177 28.8667 30.4733 19.4876 25.7088 14.7248C20.946 9.96033 11.5669 11.6159 4.76175 18.421" stroke="#222222" stroke-width="2" stroke-linecap="round" stroke-linejoin="round"/>
</svg>
