<svg width="40" height="40" viewBox="0 0 40 40" fill="none" xmlns="http://www.w3.org/2000/svg">
<circle cx="10.8917" cy="10.8917" r="10.8917" fill="#70E9C9"/>
<path d="M7.00077 35.9654C8.81313 34.5361 10.292 33.1052 12.6553 32.7794C14.7013 32.7789 16.6709 33.5555 18.1649 34.9517C18.9402 35.4942 19.8367 35.8389 20.7761 35.9556C21.7155 36.0724 22.6692 35.9578 23.554 35.6217C24.4388 35.2855 25.2277 34.7382 25.852 34.0274C26.4763 33.3167 26.9169 32.4641 27.1354 31.5441C28.0761 31.7116 29.045 31.6104 29.9307 31.2522C30.8164 30.894 31.5828 30.2932 32.1418 29.5192C32.7007 28.7451 33.0295 27.8291 33.0903 26.8766C33.1511 25.9241 32.9415 24.9738 32.4854 24.1351C33.3166 23.8669 34.0644 23.3889 34.6564 22.7475C35.2485 22.106 35.6647 21.3228 35.8649 20.4736C36.0651 19.6244 36.0425 18.7379 35.7992 17.9C35.5559 17.0621 35.1002 16.3011 34.4761 15.6907C34.9474 15.22 35.3212 14.6612 35.5762 14.0462C35.8313 13.4312 35.9625 12.772 35.9625 12.1064C35.9625 11.4407 35.8313 10.7816 35.5762 10.1666C35.3212 9.55157 34.9474 8.99278 34.4761 8.52208C34.0049 8.05138 33.4455 7.67801 32.8297 7.42327C32.214 7.16853 31.5541 7.03742 30.8877 7.03742C29.5417 7.03742 28.2509 7.57147 27.2992 8.52208C26.688 7.89879 25.9261 7.44361 25.0873 7.2006C24.2484 6.95759 23.3609 6.93497 22.5107 7.13493C21.6605 7.33489 20.8763 7.75066 20.2341 8.34201C19.5919 8.93336 19.1134 9.68027 18.8449 10.5105C18.0052 10.055 17.0538 9.84554 16.1002 9.90627C15.1466 9.96701 14.2296 10.2954 13.4546 10.8537C12.6796 11.4121 12.0782 12.1776 11.7195 13.0622C11.3609 13.9469 11.2596 14.9147 11.4273 15.8543C10.5142 16.0764 9.66888 16.5168 8.96401 17.1376C8.25913 17.7583 7.71584 18.5409 7.38089 19.4179C7.04595 20.2949 6.92938 21.2401 7.04122 22.172C7.15307 23.104 7.48997 23.9949 8.02295 24.768C9.17416 26.4363 10.4936 28.3074 10.1905 30.3175C9.79326 32.6969 8.47096 34.1291 7.00077 35.9654ZM7.00077 35.9654L28.7491 14.2425" stroke="#222222" stroke-width="2" stroke-linecap="round" stroke-linejoin="round"/>
</svg>
